Coordinates
version=1
nRows=14
nColumns=24
inDegrees=yes

Units are S.I. units (second, meters, Newtons, ...)
Angles are in degrees.

endheader
time	pelvis_tilt	pelvis_list	pelvis_rotation	pelvis_tx	pelvis_ty	pelvis_tz	hip_flexion_r	hip_adduction_r	hip_rotation_r	knee_angle_r	ankle_angle_r	subtalar_angle_r	mtp_angle_r	hip_flexion_l	hip_adduction_l	hip_rotation_l	knee_angle_l	ankle_angle_l	subtalar_angle_l	mtp_angle_l	lumbar_extension	lumbar_bending	lumbar_rotation
      3.71000000	    -14.46213847	     -1.99616410	      7.41806249	      1.88743391	     -0.03466067	     -0.43374843	     38.31707794	     -1.98027079	     -8.59435837	     -3.55336635	     -8.36681016	      4.18741627	     12.83090405	     -3.60361817	      0.88650522	     -1.14073270	    -10.91040011	      2.91785604	     17.49923133	     15.09032231	     12.83344756	      0.25445090	     -9.53114485
      3.71500000	    -14.52111054	     -2.04743709	      7.53522315	      1.89439533	     -0.03562256	     -0.43364882	     38.53319372	     -1.97915557	     -8.94445010	     -4.09087494	     -8.19471804	      4.23543187	     12.65566095	     -3.74084744	      0.70135970	     -1.28674532	    -11.24640720	      2.69087648	     18.03421468	     15.42811556	     12.93735644	      0.30587762	     -9.55907247
      3.72000000	    -14.56710744	     -2.06455952	      7.72186269	      1.90140870	     -0.03656100	     -0.43363520	     38.71615308	     -2.05301623	     -9.22125589	     -4.69334888	     -8.05334320	      4.12362374	     12.57322635	     -3.88010057	      0.54956616	     -1.32930907	    -11.60877505	      2.42099506	     18.52311786	     15.66245119	     13.02963096	      0.30461318	     -9.68647219
      3.72500000	    -14.61777155	     -2.08178115	      7.89435625	      1.90849424	     -0.03752084	     -0.43358453	     38.90874626	     -2.12033061	     -9.46981142	     -5.37655759	     -7.96238921	      4.00690413	     12.50001446	     -4.00647792	      0.38726774	     -1.41887346	    -11.98648661	      2.13513277	     19.09746775	     15.94502365	     13.13057636	      0.30370436	     -9.79336419
      3.73000000	    -14.66333110	     -2.09814149	      8.06209036	      1.91566225	     -0.03847889	     -0.43351219	     39.08292897	     -2.18136035	     -9.66627843	     -6.09850400	     -7.93925511	      3.83964769	     12.42593749	     -4.13028481	      0.21695579	     -1.51640439	    -12.38197882	      1.81529923	     19.69890472	     16.24590110	     13.23306009	      0.30193064	     -9.90510464
      3.73500000	    -14.71013907	     -2.13199992	      8.22937188	      1.92290299	     -0.03942753	     -0.43345201	     39.24319998	     -2.22511497	     -9.81980847	     -6.84103337	     -8.01578260	      3.62598669	     12.33425586	     -4.23871396	      0.01931103	     -1.65851341	    -12.79467819	      1.46393716	     20.36024797	     16.59827108	     13.34553804	      0.32407446	    -10.01076394
      3.74000000	    -14.72143941	     -2.12940398	      8.41726228	      1.93006834	     -0.04030040	     -0.43341681	     39.34903010	     -2.31006667	     -9.90722425	     -7.58417037	     -8.21682169	      3.40371584	     12.27087377	     -4.36798786	     -0.14327520	     -1.69158134	    -13.23833975	      1.08125731	     20.96038695	     16.83783695	     13.39552188	      0.30817597	    -10.14997129
      3.74500000	    -14.77774931	     -2.24763016	      8.53088443	      1.93753561	     -0.04120373	     -0.43327013	     39.47476833	     -2.22779205	     -9.97902800	     -8.28406822	     -8.58138777	      3.07176809	     12.15428849	     -4.43256743	     -0.45625844	     -2.02910107	    -13.69190546	      0.63852164	     21.78307321	     17.35747241	     13.55543800	      0.42835984	    -10.19988948
      3.75000000	    -14.79859560	     -2.33677829	      8.70519674	      1.94489542	     -0.04197116	     -0.43321036	     39.53793325	     -2.20754475	    -10.01196649	     -8.95208620	     -9.09316995	      2.74094879	     12.06178204	     -4.50824057	     -0.74103579	     -2.19738080	    -14.17540357	      0.13499305	     22.51370614	     17.74148586	     13.65448957	      0.51081140	    -10.34896263
      3.75500000	    -14.81180492	     -2.46781120	      8.83553380	      1.95225182	     -0.04267736	     -0.43307115	     39.58707097	     -2.11289238	    -10.00069743	     -9.58412089	     -9.77916917	      2.37535432	     11.98596345	     -4.55742417	     -1.08241005	     -2.44079871	    -14.70711903	     -0.39992867	     23.29308143	     18.17005529	     13.74438387	      0.64615641	    -10.45644173
      3.76000000	    -14.79679010	     -2.63838071	      8.89620567	      1.95962201	     -0.04329680	     -0.43285134	     39.61452712	     -1.92493799	     -9.92199757	    -10.20180995	    -10.61848878	      1.90550996	     11.94691517	     -4.62437090	     -1.47638198	     -2.80548628	    -15.24225465	     -1.01528933	     24.07412836	     18.72802763	     13.80600103	      0.85219267	    -10.49123315
      3.76500000	    -14.78566855	     -2.84784766	      8.98648453	      1.96697759	     -0.04377562	     -0.43268998	     39.62922799	     -1.72308428	     -9.84304677	    -10.78272116	    -11.54623655	      1.43540234	     11.90577128	     -4.64208830	     -1.91791584	     -3.13117756	    -15.82537436	     -1.70480231	     24.85352241	     19.23943579	     13.87755916	      1.09149820	    -10.57553086
      3.77000000	    -14.76491385	     -3.09326441	      9.06116067	      1.97430661	     -0.04413293	     -0.43249955	     39.63763858	     -1.47299163	     -9.71693459	    -11.36199739	    -12.49966649	      0.92576549	     11.83537410	     -4.62988377	     -2.40750662	     -3.48564390	    -16.45505025	     -2.47003830	     25.63368387	     19.76037566	     13.93843457	      1.37260118	    -10.66135232
      3.77500000	    -14.74149958	     -3.38336701	      9.11957096	      1.98163666	     -0.04437506	     -0.43229698	     39.65259985	     -1.16907881	     -9.56166606	    -11.96127328	    -13.41209863	      0.39376039	     11.69675041	     -4.58008951	     -2.95214098	     -3.86701344	    -17.13194636	     -3.31465941	     26.39838579	     20.28329638	     14.00336326	      1.70416657	    -10.75039799
